#!OML:ASF E:/inclinewalkrobotboard/Project1/Captureday1/Session1/subject1.ASF
:FULLY-SPECIFIED
:DEGREES
151
root 0 0 0 -1.0389116699042376 -2.7375541161228387 -2.4605111231147303
lowerback 9.413389717594537 0.35097825111558 0.6700792023550504
upperback -0.010986162471144922 0.68302247216019 1.7371564215429007
thorax -5.187495367558352 0.35482603672065205 1.354129097340675
lowerneck -16.477896295390575 -2.972827489979206 -1.9391695961224484
upperneck 19.872608594471895 -3.8082695201865513 0.6900157091025094
head 9.048670195744856 -1.8483602596060837 0.0782280923299663
rclavicle -6.592313822295202E-16 -4.78698009798185E-16
rhumerus -23.74985238913151 -18.86979664955623 -74.9240722491317
rradius 27.038420185733752
rwrist 6.479855936540584
rhand -15.81034295605097 20.968752513343574
rfingers 7.125020000000033
rthumb 10.361553410761871 -8.509790769896847
lclavicle -6.593512818919492E-16 -3.174989121272821E-16
lhumerus -29.690635389798217 1.4248007237708737 78.08190508365595
lradius 28.738736620457022
lwrist 3.175162056056271
lhand -23.85739176177613 23.322770876949157
lfingers 7.12502000000004
lthumb 2.5603337125427466 53.005124366821086
rfemur -2.34476082738648 -8.33024985888737 13.812597474880661
rtibia 38.9953387795776
rfoot -9.008234950052879 -8.218325881841036
rtoes 6.386812638997551
lfemur -14.102824985827333 -0.5516773978408924 -20.754599125393177
ltibia 34.27916128767609
lfoot -9.130586273289508 -0.49707534250992325
ltoes -2.091317500819958
152
root 0 0 0 -0.9963682573326871 -2.7580961955637395 -2.4700384702700093
lowerback 9.391544976251563 0.3516905471832652 0.6665804852068606
upperback -0.0256695408285168 0.6836493794707726 1.7382689771514725
thorax -5.190888271229638 0.35528931884268955 1.3575635289388641
lowerneck -16.468848521874612 -2.9682591453807206 -1.9363420294809868
upperneck 19.87905451797785 -3.8032921594354514 0.6944223526319413
head 9.049797730587395 -1.8457402893599948 0.07960413502932973
rclavicle -6.581951765239709E-16 -4.79579463681656E-16
rhumerus -23.682387086267013 -18.876653561931352 -74.8820118412648
rradius 27.04016953800825
rwrist 6.510455406448287
rhand -15.781893871729318 20.94531818036898
rfingers 7.125020000000033
rthumb 10.388703000375362 -8.52971884032859
lclavicle -6.581179611531863E-16 -3.192226211700448E-16
lhumerus -29.65160912592841 1.4334651507447154 78.02051657221241
lradius 28.748837992313625
lwrist 3.1461926300523935
lhand -23.81430204766821 23.32410582101477
lfingers 7.125020000000039
lthumb 2.6022420778810904 53.00158422398645
rfemur -2.1847232246739168 -8.52396739258107 13.62406317618131
rtibia 39.00271759012439
rfoot -9.029955843928745 -8.243323387040249
rtoes 6.423164339576626
lfemur -14.180652714965518 -0.5292476997605 -20.772306010568244
ltibia 34.30610300187317
lfoot -9.157305565700819 -0.45922867944229395
ltoes -2.0615059531426354
153
root 0 0 0 -1.161993035264448 -2.674976257326133 -2.431575498404958
lowerback 9.476112885561221 0.34840473633396074 0.6797507364850723
upperback 0.03130850257370277 0.6807219050441619 1.734541154919386
thorax -5.1775136769557895 0.3531656148882041 1.3446528586327755
lowerneck -16.503470579143492 -2.9866167894456193 -1.9478746918054064
upperneck 19.855061845067656 -3.823003025350682 0.6769987562941262
head 9.045953610842147 -1.856422252286197 0.07417141145036055
rclavicle -6.598782189689481E-16 -4.802071371873827E-16
rhumerus -23.910310397519666 -18.853513156811086 -75.02838302498961
rradius 27.03561429075136
rwrist 6.400630839040581
rhand -15.881277848695397 21.02665482796521
rfingers 7.125020000000035
rthumb 10.292977864597471 -8.459916436333316
lclavicle -6.625784918837066E-16 -3.1279730610855543E-16
lhumerus -29.781540539287917 1.4057093571150512 78.22628765532528
lradius 28.714606813929564
lwrist 3.241218319362982
lhand -23.961325659299778 23.320314950612996
lfingers 7.125020000000042
lthumb 2.4600860396420288 53.01404967841681
rfemur -2.7190703841390587 -7.875112509430124 14.254213232958051
rtibia 38.97783422457914
rfoot -8.957953412272511 -8.158961405528553
rtoes 6.300485561688156
lfemur -13.924550751519028 -0.6029087418160337 -20.715225196916442
ltibia 34.21467202391209
lfoot -9.072511867100328 -0.5836347935075885
ltoes -2.160957085117074
154
root 0 0 0 -1.0978018225757395 -2.7063329630890856 -2.446566569527177
lowerback 9.443034437748977 0.34954382315348687 0.6745510173173108
upperback 0.008996098340229963 0.6817454691884962 1.7359902336567417
thorax -5.182655968307671 0.3539248377902675 1.3498297145261273
lowerneck -16.489835676336646 -2.979710325411783 -1.9435060506711408
upperneck 19.86497705532321 -3.8158366354572535 0.6836592811126088
head 9.047565700686524 -1.852518958433961 0.07621441788866778
rclavicle -6.601726160158753E-16 -4.803954234995523E-16
rhumerus -23.86097636962839 -18.85942601072113 -74.99142391370945
rradius 27.036875568201168
rwrist 6.42624140179997
rhand -15.8585745048707 21.008182410861288
rfingers 7.125020000000034
rthumb 10.3155012357942 -8.476328250158142
lclavicle -6.613659322681642E-16 -3.150395934234916E-16
lhumerus -29.749429880072512 1.4117052094386402 78.17529824538187
lradius 28.72381371302721
lwrist 3.219536387926107
lhand -23.923792757462422 23.320683692770455
lfingers 7.125020000000041
lthumb 2.4960374488348336 53.01051603906324
rfemur -2.5548301501237205 -8.07462071381093 14.06331018811045
rtibia 38.98173867710097
rfoot -8.981147895137772 -8.185348229421404
rtoes 6.337265539958366
lfemur -13.98033867709308 -0.5876073538127269 -20.727523541986184
ltibia 34.23341523110078
lfoot -9.090910205366319 -0.5559843378173213
ltoes -2.138671311609789
155
root 0 0 0 -1.0439176434804445 -2.7362412801801757 -2.459898290193861
lowerback 9.416227830631005 0.35106738015378025 0.6706915498682577
upperback -0.009174949770985208 0.6831241957622343 1.7368892785800074
thorax -5.187184550050825 0.3548615301735912 1.353499904738526
lowerneck -16.47916263833705 -2.973136861247552 -1.9393423959715177
upperneck 19.871461107321203 -3.808648144746743 0.6895877832952184
head 9.04840073672979 -1.8484868165107695 0.07809234852018287
rclavicle -6.593538741601534E-16 -4.785434722917528E-16
rhumerus -23.760954504998708 -18.86867637159038 -74.93095675038377
rradius 27.038118038514156
rwrist 6.474794245394332
rhand -15.81500730110605 20.972595849702337
rfingers 7.125020000000033
rthumb 10.357105687062555 -8.506521318237377
lclavicle -6.597161142436652E-16 -3.170753883323201E-16
lhumerus -29.700858939432585 1.4225819700598752 78.09793922652406
lradius 28.7360495910632
lwrist 3.182702510586081
lhand -23.86877973308792 23.322467204872304
lfingers 7.12502000000004
lthumb 2.549274709361587 53.00610622455147
rfemur -2.3782565454113183 -8.289030614576276 13.852897907385355
rtibia 38.99245796253221
rfoot -9.003940655532915 -8.213067412900035
rtoes 6.378701328435856
lfemur -14.088316372666505 -0.5558627984872366 -20.751303360230608
ltibia 34.27412417932781
lfoot -9.125562047614673 -0.5041366305154398
ltoes -2.0968892589773205
156
root 0 0 0 -0.9999152959162281 -2.7574358123491756 -2.469746549320976
lowerback 9.393624285744608 0.3517977655726313 0.6670781723221988
upperback -0.024363568923622125 0.6837745155292004 1.7380444016749446
thorax -5.190681153747736 0.35534046168471045 1.357052577351478
lowerneck -16.469799803575953 -2.9684287455344958 -1.936423725807459
upperneck 19.878152118919566 -3.803511670526716 0.6941331969532976
head 9.049578078349565 -1.8457897829323562 0.07951115294887312
rclavicle -6.582712415792556E-16 -4.794661840070174E-16
rhumerus -23.68965218047512 -18.8759270478796 -74.8864618135006
rradius 27.039966820992127
rwrist 6.5071591358438
rhand -15.784909510377497 20.94780773709487
rfingers 7.125020000000033
rthumb 10.385832321133197 -8.527602158707461
lclavicle -6.584241135347197E-16 -3.1887837347996154E-16
lhumerus -29.660161694048597 1.431641492342199 78.0338665195933
lradius 28.74657598003462
lwrist 3.152444771992357
lhand -23.82381797027823 23.323862793984333
lfingers 7.12502000000004
lthumb 2.5930019270534928 53.00241680241673
rfemur -2.2111586312307594 -8.491305253341025 13.65602644032019
rtibia 39.00019285273917
rfoot -9.02660778909211 -8.239171111883266
rtoes 6.416665262161626
lfemur -14.170083430458291 -0.5322958907318327 -20.769904479516846
ltibia 34.30243028416499
lfoot -9.153636703823683 -0.4643739663405846
ltoes -2.0655625866500262
157
root 0 0 0 -0.971710632190792 -2.769974480690678 -2.475562343584402
lowerback 9.378885208007471 0.3521066075394127 0.6645751634622639
upperback -0.03416751486030023 0.684026637634132 1.738908808230194
thorax -5.192836014449147 0.3555684568957947 1.359542932119461
lowerneck -16.463610819385494 -2.965620960927612 -1.9347035068966663
upperneck 19.882787757267014 -3.8004044049764842 0.6969609566994395
head 9.050452998471044 -1.8442292011912844 0.08039753831391194
rclavicle -6.576399608231825E-16 -4.799684735209858E-16
rhumerus -23.638999923733373 -18.8810266532761 -74.85491494695202
rradius 27.04122966954163
rwrist 6.530455977060424
rhand -15.763386721413186 20.930103735975656
rfingers 7.125020000000032
rthumb 10.40637208365315 -8.542658771454564
lclavicle -6.573695561319267E-16 -3.2025370536996586E-16
lhumerus -29.628528595027227 1.43874612193905 77.98383819240867
lradius 28.754742395541133
lwrist 3.1287179086565846
lhand -23.7886125466794 23.32493883338986
lfingers 7.125020000000039
lthumb 2.6271905782667346 52.999526267087994
rfemur -2.0881307902429995 -8.640684071056214 13.510405009210771
rtibia 39.00687691619302
rfoot -9.043054885142437 -8.25844340541895
rtoes 6.445026317318106
lfemur -14.230643294935405 -0.5147924945467324 -20.783623454063118
ltibia 34.323667589968
lfoot -9.174233783597753 -0.4349818627830153
ltoes -2.0423664541289703
